<?xml version="1.0" standalone="no"?>
<!DOCTYPE svg PUBLIC "-//W3C//DTD SVG 20010904//EN"
 "http://www.w3.org/TR/2001/REC-SVG-20010904/DTD/svg10.dtd">
<svg version="1.0" xmlns="http://www.w3.org/2000/svg"
 width="333.000000pt" height="333.000000pt" viewBox="0 0 333.000000 333.000000"
 preserveAspectRatio="xMidYMid meet">
<metadata>
Created by potrace 1.14, written by Peter Selinger 2001-2017
</metadata>
<g transform="translate(0.000000,333.000000) scale(0.100000,-0.100000)"
fill="#000000" stroke="none">
<path d="M899 2956 c-18 -6 -46 -28 -62 -48 l-30 -38 -2 -252 c-1 -261 2 -286
41 -319 14 -12 139 -14 811 -15 542 0 801 3 816 10 34 17 62 73 49 99 -5 12
-24 52 -41 90 -103 229 -297 391 -547 458 -74 20 -106 21 -541 23 -307 2 -472
-1 -494 -8z"/>
<path d="M862 1992 c-52 -8 -51 11 -52 -792 -1 -459 2 -755 8 -770 5 -14 20
-34 32 -45 20 -19 37 -20 226 -21 132 -1 212 3 226 10 13 6 31 27 40 46 17 32
18 91 18 781 0 696 -1 748 -17 768 -17 21 -26 22 -238 24 -121 1 -230 1 -243
-1z"/>
<path d="M1729 1978 c-16 -10 -30 -26 -31 -35 -7 -77 -3 -652 4 -667 9 -17 18
-18 82 -13 275 23 538 204 669 462 41 81 78 205 67 225 -22 42 -25 42 -401 44
-328 1 -365 -1 -390 -16z"/>
</g>
</svg>
